<?xml version="1.0" standalone="no"?>
<!DOCTYPE svg PUBLIC "-//W3C//DTD SVG 20010904//EN"
 "http://www.w3.org/TR/2001/REC-SVG-20010904/DTD/svg10.dtd">
<svg version="1.0" xmlns="http://www.w3.org/2000/svg"
 width="676.000000pt" height="724.000000pt" viewBox="0 0 676.000000 724.000000"
 preserveAspectRatio="xMidYMid meet">

<g transform="translate(0.000000,724.000000) scale(0.100000,-0.100000)"
fill="#000000" stroke="none">
<path d="M3150 6989 c-1024 -61 -2000 -619 -2562 -1464 -117 -177 -165 -263
-252 -450 -362 -785 -380 -1698 -49 -2505 321 -781 982 -1439 1773 -1765 1006
-416 2139 -337 3061 212 801 477 1357 1260 1533 2158 32 162 47 315 53 525 13
518 -97 1011 -329 1473 -158 316 -343 572 -598 828 -169 170 -257 245 -424
365 -517 369 -1136 587 -1774 624 -176 11 -251 10 -432 -1z m725 -443 c61 -8
146 -22 190 -31 44 -9 98 -21 120 -25 94 -19 364 -106 381 -123 4 -4 13 -7 20
-7 24 0 239 -103 349 -167 101 -59 275 -178 365 -249 192 -152 440 -425 591
-649 44 -66 179 -300 179 -311 0 -1 16 -38 36 -81 20 -43 45 -100 55 -128 11
-27 24 -59 28 -70 33 -72 106 -345 130 -485 42 -240 53 -556 26 -792 -22 -192
-56 -362 -100 -503 -33 -107 -47 -152 -55 -170 -4 -11 -14 -36 -20 -55 -34
-96 -138 -306 -216 -435 -217 -362 -534 -688 -899 -926 -226 -147 -549 -289
-805 -354 -36 -9 -83 -21 -104 -26 -60 -16 -127 -27 -306 -49 -344 -41 -851
-21 -1130 45 -152 37 -307 81 -365 106 -11 4 -60 24 -110 44 -476 191 -916
542 -1234 984 -104 145 -240 387 -300 536 -19 45 -41 104 -64 170 -22 62 -35
102 -66 210 -9 29 -28 120 -50 235 -53 272 -53 713 0 980 52 264 84 373 171
590 94 233 248 493 419 707 74 92 296 317 390 395 94 78 217 165 344 243 111
69 382 205 407 205 8 0 18 4 23 9 12 10 164 63 265 91 134 38 352 79 500 94
181 19 670 14 835 -8z"/>
<path d="M3387 6433 c-3 -5 -8 -54 -12 -110 l-7 -103 60 0 c72 0 106 22 123
80 10 32 9 44 -7 76 -11 21 -26 40 -34 42 -12 4 -11 0 3 -15 45 -51 21 -149
-40 -167 -17 -4 -43 -6 -57 -2 -25 6 -26 9 -26 91 0 46 5 87 10 90 6 3 10 10
10 16 0 11 -17 12 -23 2z"/>
<path d="M3131 6334 c1 -56 5 -108 10 -115 11 -17 12 -11 9 77 -1 40 3 75 8
78 6 3 33 -22 60 -56 55 -70 90 -104 97 -96 3 2 1 45 -4 94 l-8 89 -2 -67 c-1
-78 -12 -85 -51 -36 -14 17 -46 55 -72 82 l-48 51 1 -101z"/>
<path d="M3630 6418 c-17 -118 -25 -200 -19 -204 8 -4 14 33 24 139 4 37 4 67
1 67 -3 0 -6 -1 -6 -2z"/>
<path d="M3716 6408 c-12 -40 -37 -201 -32 -205 3 -3 8 0 10 8 17 52 24 89 25
122 0 20 5 46 11 56 7 13 7 22 0 26 -6 3 -12 0 -14 -7z"/>
<path d="M2971 6387 c-6 -16 -11 -36 -10 -45 1 -10 4 -7 8 7 10 37 26 36 45
-3 19 -41 21 -66 4 -67 -7 -1 -2 -4 12 -8 14 -4 31 -19 38 -34 7 -15 18 -27
23 -27 11 0 -59 139 -90 180 l-20 25 -10 -28z"/>
<path d="M2796 6358 c-3 -13 -7 -54 -11 -92 -9 -109 -14 -110 -81 -17 -59 81
-84 99 -84 61 0 -35 31 -174 41 -184 13 -15 11 21 -6 84 -8 30 -15 60 -15 67
0 23 25 2 59 -50 74 -111 86 -108 96 19 5 61 11 84 21 84 8 0 14 -5 14 -12 0
-28 44 -148 51 -141 14 14 -47 193 -68 200 -7 3 -14 -6 -17 -19z"/>
<path d="M3808 6348 c-2 -24 -10 -36 -30 -46 l-26 -12 25 -53 c14 -28 28 -47
30 -40 2 6 -3 26 -12 43 -16 31 -16 33 9 59 26 27 34 65 17 76 -5 3 -11 -9
-13 -27z"/>
<path d="M3900 6360 c0 -11 -9 -57 -21 -101 -18 -71 -20 -103 -4 -87 4 3 45
190 45 204 0 2 -4 4 -10 4 -5 0 -10 -9 -10 -20z"/>
<path d="M4055 6248 c-15 -51 -30 -98 -32 -103 -4 -12 72 -35 113 -35 18 0 38
12 60 36 28 29 34 43 34 80 0 49 -25 79 -83 101 -60 22 -62 20 -92 -79z m139
39 c28 -34 17 -103 -23 -139 -17 -15 -39 -28 -49 -28 -26 0 -72 23 -72 36 0
10 30 110 45 153 8 20 76 5 99 -22z"/>
<path d="M2946 6292 c-3 -4 -8 -33 -11 -63 -5 -39 -4 -50 4 -39 6 8 11 25 11
37 0 12 8 26 17 31 15 9 15 11 0 26 -8 9 -18 12 -21 8z"/>
<path d="M4299 6223 c-7 -21 -23 -60 -35 -88 -13 -27 -24 -54 -24 -60 0 -12
108 -60 117 -52 3 4 -15 15 -41 26 -50 22 -51 24 -35 70 12 34 16 36 55 21 15
-6 29 -8 32 -5 3 3 -9 10 -26 16 -36 12 -42 41 -17 75 18 24 19 34 1 34 -8 0
-20 -17 -27 -37z"/>
<path d="M2372 6237 c-7 -8 -10 -33 -8 -58 2 -24 4 -72 5 -106 1 -35 6 -63 11
-63 6 0 10 18 10 40 0 27 6 42 18 49 15 9 15 10 1 11 -20 0 -29 20 -29 66 0
42 8 43 45 4 26 -27 28 -33 17 -51 -11 -18 -10 -19 11 -14 16 4 29 -1 47 -19
23 -26 40 -33 40 -18 0 4 -36 44 -78 90 -65 69 -80 81 -90 69z"/>
<path d="M4370 6236 c28 -17 60 -22 45 -7 -6 5 -23 12 -40 16 l-30 6 25 -15z"/>
<path d="M4446 6099 c-26 -50 -45 -93 -42 -97 9 -9 23 8 53 68 16 29 33 53 38
52 6 0 19 -46 29 -101 11 -56 25 -101 31 -101 6 0 32 43 58 95 26 52 42 95 37
95 -5 0 -26 -32 -46 -72 -43 -85 -48 -81 -69 47 -13 85 -20 105 -34 105 -4 0
-29 -41 -55 -91z"/>
<path d="M2240 6126 c0 -30 -4 -57 -9 -60 -5 -3 -27 8 -50 25 -65 46 -71 29
-7 -20 31 -24 66 -60 78 -80 17 -26 24 -31 26 -19 2 9 -2 26 -7 37 -6 11 -11
54 -11 95 0 44 -4 76 -10 76 -5 0 -10 -24 -10 -54z"/>
<path d="M4710 6074 c0 -3 9 -13 20 -22 22 -18 29 -4 -76 -174 -2 -4 0 -9 5
-12 5 -4 31 30 58 74 47 79 48 79 83 74 34 -5 34 -5 -20 30 -52 35 -70 42 -70
30z"/>
<path d="M1988 6052 c-16 -9 -28 -21 -28 -25 0 -20 96 -176 108 -177 16 0 15
12 -3 36 -18 24 -19 50 -2 57 7 3 30 -4 52 -14 21 -10 45 -19 52 -19 26 0 12
17 -27 35 -38 17 -40 20 -34 51 12 62 -57 95 -118 56z m76 -8 c23 -9 20 -57
-5 -80 -21 -19 -21 -19 -45 11 -27 34 -29 46 -12 63 13 13 37 15 62 6z"/>
<path d="M1820 5936 c0 -8 12 -58 26 -112 28 -110 50 -149 41 -72 -6 44 -4 49
22 68 34 24 50 25 77 5 21 -16 44 -20 44 -7 0 12 -179 132 -196 132 -8 0 -14
-6 -14 -14z m79 -46 c25 -21 23 -46 -4 -57 -21 -8 -33 5 -41 45 -8 38 8 42 45
12z"/>
<path d="M4834 5879 c-104 -71 -99 -67 -90 -76 3 -4 20 1 35 10 39 23 51 22
83 -8 23 -22 26 -29 17 -57 -8 -30 2 -61 14 -41 10 16 57 192 57 212 0 32 -19
26 -116 -40z m82 -11 c-8 -40 -20 -53 -41 -45 -27 11 -29 36 -4 57 37 30 53
26 45 -12z"/>
<path d="M1690 5803 c0 -27 -5 -55 -10 -63 -9 -13 -14 -11 -35 13 -27 30 -38
34 -33 12 4 -19 109 -152 125 -159 25 -11 22 13 -8 50 -36 46 -29 51 52 34 59
-13 87 -8 59 10 -8 5 -33 12 -55 16 -68 11 -75 18 -75 79 0 30 -4 55 -10 55
-5 0 -10 -21 -10 -47z"/>
<path d="M4996 5765 c-36 -42 -66 -81 -66 -88 0 -15 79 -81 87 -73 4 4 -8 21
-26 40 l-32 33 60 74 c34 41 61 77 61 82 0 20 -25 0 -84 -68z"/>
<path d="M1747 5154 c-4 -4 -7 -127 -7 -274 0 -264 0 -267 23 -287 12 -11 171
-118 352 -238 182 -120 545 -362 809 -537 263 -175 487 -318 497 -318 11 0
174 102 362 227 1272 842 1316 872 1322 896 8 31 2 524 -7 532 -3 4 -16 2 -27
-5 -18 -9 -688 -452 -1410 -931 -123 -82 -230 -149 -238 -149 -11 0 -760 489
-933 610 -80 55 -713 472 -725 476 -6 3 -14 1 -18 -2z"/>
<path d="M1747 4253 c-4 -3 -7 -376 -7 -828 0 -641 3 -825 13 -838 6 -9 110
-81 229 -160 153 -102 220 -141 227 -134 8 8 11 182 11 550 0 509 1 539 18
535 15 -5 134 -84 670 -446 78 -54 160 -108 181 -122 22 -14 100 -67 175 -117
75 -51 147 -93 159 -93 12 0 101 53 197 118 96 65 301 203 455 307 428 289
528 355 537 355 10 0 9 49 11 -570 3 -510 3 -515 23 -514 31 0 452 284 458
308 3 12 6 387 6 834 0 675 -2 814 -14 818 -12 5 -275 -167 -1296 -845 -195
-129 -364 -236 -375 -236 -11 0 -89 45 -173 100 -83 55 -163 107 -176 115 -30
18 -453 300 -556 370 -199 135 -754 500 -760 500 -4 0 -10 -3 -13 -7z"/>
<path d="M5121 2116 c-39 -39 -61 -69 -56 -76 5 -8 16 -3 36 16 l29 28 90 -89
c71 -71 92 -87 102 -77 10 10 -5 30 -70 95 -45 45 -82 90 -82 98 0 9 9 24 20
34 18 16 19 35 2 35 -4 0 -36 -29 -71 -64z"/>
<path d="M1538 2139 c-36 -21 -41 -47 -22 -119 14 -57 15 -71 5 -84 -22 -26
-52 -18 -92 25 -41 45 -63 37 -29 -11 55 -78 137 -82 163 -8 3 10 0 39 -8 65
-19 63 -19 90 3 101 21 12 51 1 76 -27 22 -24 36 -27 36 -7 0 21 -68 76 -93
76 -12 0 -30 -5 -39 -11z"/>
<path d="M1673 1953 c-76 -89 -113 -138 -112 -149 0 -12 104 -94 118 -94 20 0
10 15 -34 50 -24 19 -44 40 -44 45 -1 6 13 25 29 43 l30 33 37 -30 c37 -30 63
-40 63 -22 0 5 -16 21 -35 35 -41 31 -44 54 -12 84 30 28 33 28 74 -8 32 -29
63 -39 63 -22 0 8 -80 79 -107 95 -7 5 -34 -19 -70 -60z"/>
<path d="M5007 2004 c-4 -4 23 -43 59 -86 36 -44 63 -82 61 -85 -3 -3 -62 9
-131 27 -118 30 -146 32 -146 9 0 -12 162 -209 172 -209 21 0 3 36 -47 97 -54
66 -64 83 -46 83 5 0 62 -14 126 -30 64 -17 121 -27 126 -24 18 11 5 34 -71
129 -71 89 -88 104 -103 89z"/>
<path d="M1867 1833 c-80 -111 -118 -174 -111 -185 5 -7 20 4 43 31 26 31 41
40 54 36 14 -6 17 -20 17 -81 0 -41 4 -74 9 -74 13 0 21 27 21 75 0 39 2 43
30 49 40 7 80 51 80 87 0 20 -12 38 -46 68 -26 23 -50 41 -55 41 -4 0 -23 -21
-42 -47z m85 -20 c45 -41 1 -115 -56 -93 -37 14 -41 34 -16 75 24 38 44 44 72
18z"/>
<path d="M4721 1794 c-37 -25 -52 -41 -48 -53 8 -31 132 -211 145 -211 20 0
138 83 124 88 -7 2 -34 -10 -61 -27 -26 -17 -51 -31 -55 -31 -9 0 -46 62 -46
77 0 7 18 25 40 39 25 17 37 31 32 36 -6 6 -26 -1 -52 -18 l-42 -28 -24 29
c-34 42 -30 56 21 88 44 28 57 47 32 47 -7 0 -36 -16 -66 -36z"/>
<path d="M2062 1749 c-5 -13 -19 -77 -31 -143 -25 -129 -21 -148 23 -130 40
15 208 176 197 187 -7 7 -41 -18 -101 -73 -50 -45 -94 -80 -97 -76 -4 3 4 58
17 122 17 85 20 118 12 126 -8 8 -14 5 -20 -13z"/>
<path d="M4571 1701 c-11 -7 -11 -27 2 -127 8 -66 11 -123 7 -127 -4 -5 -47
29 -95 75 -48 46 -90 84 -94 86 -4 1 -14 -3 -23 -10 -16 -12 -15 -18 11 -73
15 -33 40 -88 56 -122 27 -60 45 -79 45 -49 0 7 -16 48 -35 90 -19 43 -35 84
-35 92 0 9 35 -16 85 -61 55 -50 90 -75 100 -71 18 6 19 50 5 150 -6 38 -7 73
-2 78 5 5 21 -15 37 -44 54 -100 76 -131 87 -120 11 11 -109 242 -127 242 -5
0 -16 -4 -24 -9z"/>
<path d="M2245 1524 c-57 -121 -62 -134 -45 -134 11 0 120 212 120 235 0 39
-25 5 -75 -101z"/>
<path d="M2410 1563 c-36 -13 -79 -67 -90 -114 -10 -42 -9 -54 7 -86 21 -45
77 -76 125 -71 36 4 26 11 -37 24 -31 7 -44 17 -59 44 -16 31 -17 41 -6 79 6
24 25 58 41 74 27 27 35 29 77 24 26 -3 57 -9 70 -12 35 -11 26 11 -12 29 -33
16 -86 20 -116 9z"/>
<path d="M4183 1534 c-18 -8 -33 -16 -33 -18 0 -10 62 -174 82 -216 23 -48 37
-40 19 12 -17 47 -14 55 26 75 66 32 81 95 33 143 -24 24 -79 25 -127 4z m90
-13 c17 -7 28 -21 32 -42 6 -28 3 -36 -19 -56 -49 -41 -72 -27 -91 58 -6 23
-2 28 22 37 15 6 29 11 30 11 1 1 13 -3 26 -8z"/>
<path d="M2611 1502 c-5 -10 -17 -47 -26 -82 -9 -36 -23 -84 -31 -108 -8 -23
-14 -47 -14 -51 0 -11 140 -55 147 -47 6 6 3 7 -61 29 -53 18 -61 34 -42 80
18 40 32 44 85 26 18 -6 35 -8 39 -5 9 10 -18 26 -44 26 -11 0 -28 6 -38 13
-16 12 -16 18 -6 56 11 43 12 43 48 36 20 -4 49 -9 65 -12 41 -8 33 13 -10 25
-21 6 -53 15 -71 20 -27 9 -34 8 -41 -6z"/>
<path d="M4065 1491 c-3 -5 6 -45 19 -88 14 -43 30 -97 36 -120 7 -28 16 -43
26 -43 9 0 14 6 12 13 -2 6 -20 65 -39 129 -32 113 -41 129 -54 109z"/>
<path d="M3978 1465 c-3 -3 3 -40 13 -83 27 -110 25 -146 -7 -171 -66 -52
-113 -13 -139 114 -10 50 -22 94 -26 99 -19 22 -21 -9 -4 -95 22 -114 51 -153
109 -151 49 2 87 21 105 53 13 23 12 37 -9 133 -22 99 -29 114 -42 101z"/>
<path d="M2959 1419 c-17 -17 -20 -30 -17 -64 5 -39 2 -45 -28 -69 -27 -21
-34 -34 -34 -61 0 -51 33 -78 90 -72 25 2 53 7 62 11 11 5 23 1 37 -13 25 -25
31 -26 31 -6 0 8 -4 15 -10 15 -15 0 -12 38 6 66 22 33 7 45 -18 15 -23 -29
-43 -22 -68 24 -13 24 -13 28 0 33 23 8 70 59 70 75 0 8 -9 26 -21 41 -26 32
-70 35 -100 5z m75 -15 c9 -8 16 -22 16 -30 0 -21 -39 -56 -58 -52 -34 6 -22
98 13 98 7 0 21 -7 29 -16z m-40 -158 c30 -40 33 -61 10 -70 -54 -21 -112 12
-99 56 18 58 51 63 89 14z"/>
<path d="M3583 1401 c-63 -29 -94 -104 -73 -179 12 -47 60 -92 96 -92 14 0 53
-16 88 -35 68 -37 76 -40 76 -26 0 5 -13 14 -30 21 -53 22 -56 35 -16 82 32
37 36 48 36 96 0 59 -19 111 -49 129 -36 23 -84 24 -128 4z m121 -36 c45 -48
41 -166 -6 -200 -60 -42 -127 -24 -154 40 -27 66 -7 156 38 175 46 18 97 12
122 -15z"/>
<path d="M3292 1263 l3 -138 78 -3 c58 -2 77 0 72 9 -5 7 -26 10 -57 7 -61 -6
-80 8 -72 55 10 55 11 57 58 57 25 0 48 5 51 10 4 6 -15 10 -50 10 l-56 0 3
53 3 52 58 3 c84 4 70 22 -18 22 l-76 0 3 -137z"/>
</g>
</svg>
